<svg xmlns="http://www.w3.org/2000/svg" xmlns:xlink="http://www.w3.org/1999/xlink" width="500" zoomAndPan="magnify" viewBox="0 0 375 374.999991" height="500" preserveAspectRatio="xMidYMid meet" version="1.0"><defs><g/><clipPath id="de9652cff6"><path d="M 23 18.75 L 118 18.75 L 118 114 L 23 114 Z M 23 18.75 " clip-rule="nonzero"/></clipPath><clipPath id="880b3ab3e2"><path d="M 257 18.75 L 353 18.75 L 353 114 L 257 114 Z M 257 18.75 " clip-rule="nonzero"/></clipPath></defs><path fill="#ff3131" d="M 112.90625 172.539062 C 96.003906 138.441406 60.683594 135.78125 36.15625 151.390625 C 16.085938 164.121094 7.167969 188.792969 13.640625 211.667969 C 17.671875 225.984375 23.425781 239.507812 30.617188 252.164062 C 40.472656 269.429688 55.433594 283.238281 73.417969 291.726562 C 93.484375 301.292969 112.1875 306.113281 128.875 306.113281 C 149.375 306.113281 166.421875 298.707031 180.953125 286.910156 C 149.734375 256.769531 130.601562 208.289062 112.90625 172.539062 Z M 112.90625 172.539062 " fill-opacity="1" fill-rule="nonzero"/><g clip-path="url(#de9652cff6)"><path fill="#ff3131" d="M 117.582031 66.007812 C 117.582031 67.554688 117.507812 69.101562 117.355469 70.640625 C 117.203125 72.179688 116.976562 73.710938 116.675781 75.226562 C 116.371094 76.746094 115.996094 78.246094 115.546875 79.726562 C 115.097656 81.207031 114.578125 82.664062 113.984375 84.09375 C 113.394531 85.523438 112.730469 86.921875 112.003906 88.285156 C 111.273438 89.652344 110.476562 90.976562 109.617188 92.265625 C 108.757812 93.550781 107.835938 94.792969 106.855469 95.988281 C 105.875 97.1875 104.835938 98.332031 103.742188 99.425781 C 102.644531 100.519531 101.5 101.558594 100.304688 102.539062 C 99.109375 103.523438 97.867188 104.441406 96.578125 105.300781 C 95.292969 106.164062 93.964844 106.957031 92.601562 107.6875 C 91.234375 108.417969 89.839844 109.078125 88.410156 109.667969 C 86.980469 110.261719 85.523438 110.78125 84.042969 111.230469 C 82.5625 111.679688 81.0625 112.058594 79.542969 112.359375 C 78.023438 112.660156 76.496094 112.886719 74.957031 113.039062 C 73.414062 113.191406 71.871094 113.265625 70.324219 113.265625 C 68.777344 113.265625 67.230469 113.191406 65.691406 113.039062 C 64.152344 112.886719 62.621094 112.660156 61.105469 112.359375 C 59.585938 112.058594 58.085938 111.679688 56.605469 111.230469 C 55.125 110.78125 53.667969 110.261719 52.238281 109.667969 C 50.808594 109.078125 49.410156 108.417969 48.046875 107.6875 C 46.679688 106.957031 45.355469 106.164062 44.066406 105.300781 C 42.78125 104.441406 41.539062 103.523438 40.34375 102.539062 C 39.148438 101.558594 38 100.519531 36.90625 99.425781 C 35.8125 98.332031 34.773438 97.1875 33.792969 95.988281 C 32.808594 94.792969 31.890625 93.550781 31.03125 92.265625 C 30.167969 90.976562 29.375 89.652344 28.644531 88.285156 C 27.914062 86.921875 27.253906 85.523438 26.664062 84.09375 C 26.070312 82.664062 25.550781 81.207031 25.101562 79.726562 C 24.652344 78.246094 24.273438 76.746094 23.972656 75.226562 C 23.671875 73.710938 23.445312 72.179688 23.292969 70.640625 C 23.140625 69.101562 23.066406 67.554688 23.066406 66.007812 C 23.066406 64.460938 23.140625 62.917969 23.292969 61.375 C 23.445312 59.835938 23.671875 58.308594 23.972656 56.789062 C 24.273438 55.269531 24.652344 53.769531 25.101562 52.289062 C 25.550781 50.808594 26.070312 49.351562 26.664062 47.921875 C 27.253906 46.492188 27.914062 45.097656 28.644531 43.730469 C 29.375 42.367188 30.167969 41.039062 31.03125 39.753906 C 31.890625 38.464844 32.808594 37.222656 33.792969 36.027344 C 34.773438 34.832031 35.8125 33.6875 36.90625 32.589844 C 38 31.496094 39.148438 30.460938 40.34375 29.476562 C 41.539062 28.496094 42.78125 27.574219 44.066406 26.714844 C 45.355469 25.855469 46.679688 25.058594 48.046875 24.332031 C 49.410156 23.601562 50.808594 22.941406 52.238281 22.347656 C 53.667969 21.753906 55.125 21.234375 56.605469 20.785156 C 58.085938 20.335938 59.585938 19.960938 61.105469 19.65625 C 62.621094 19.355469 64.152344 19.128906 65.691406 18.976562 C 67.230469 18.824219 68.777344 18.75 70.324219 18.75 C 71.871094 18.75 73.414062 18.824219 74.957031 18.976562 C 76.496094 19.128906 78.023438 19.355469 79.542969 19.65625 C 81.0625 19.960938 82.5625 20.335938 84.042969 20.785156 C 85.523438 21.234375 86.980469 21.753906 88.410156 22.347656 C 89.839844 22.941406 91.234375 23.601562 92.601562 24.332031 C 93.964844 25.058594 95.292969 25.855469 96.578125 26.714844 C 97.867188 27.574219 99.109375 28.496094 100.304688 29.476562 C 101.5 30.460938 102.644531 31.496094 103.742188 32.589844 C 104.835938 33.6875 105.875 34.832031 106.855469 36.027344 C 107.835938 37.222656 108.757812 38.464844 109.617188 39.753906 C 110.476562 41.039062 111.273438 42.367188 112.003906 43.730469 C 112.730469 45.097656 113.394531 46.492188 113.984375 47.921875 C 114.578125 49.351562 115.097656 50.808594 115.546875 52.289062 C 115.996094 53.769531 116.371094 55.269531 116.675781 56.789062 C 116.976562 58.308594 117.203125 59.835938 117.355469 61.375 C 117.507812 62.917969 117.582031 64.460938 117.582031 66.007812 Z M 117.582031 66.007812 " fill-opacity="1" fill-rule="nonzero"/></g><path fill="#ff5757" d="M 338.984375 151.390625 C 314.457031 135.78125 279.066406 138.371094 262.234375 172.539062 C 228.210938 241.015625 189.152344 356.25 69.675781 299.496094 C 101.324219 326.757812 142.542969 343.230469 187.570312 343.230469 C 270.21875 343.230469 339.921875 287.699219 361.429688 211.957031 C 367.828125 189.082031 359.054688 164.121094 338.984375 151.390625 Z M 338.984375 151.390625 " fill-opacity="1" fill-rule="nonzero"/><g clip-path="url(#880b3ab3e2)"><path fill="#ff5757" d="M 352.003906 66.007812 C 352.003906 67.554688 351.929688 69.101562 351.777344 70.640625 C 351.625 72.179688 351.398438 73.710938 351.097656 75.226562 C 350.796875 76.746094 350.417969 78.246094 349.96875 79.726562 C 349.519531 81.207031 349 82.664062 348.40625 84.09375 C 347.816406 85.523438 347.15625 86.921875 346.425781 88.285156 C 345.695312 89.652344 344.902344 90.976562 344.039062 92.265625 C 343.179688 93.550781 342.261719 94.792969 341.277344 95.988281 C 340.296875 97.1875 339.257812 98.332031 338.164062 99.425781 C 337.070312 100.519531 335.921875 101.558594 334.726562 102.539062 C 333.53125 103.523438 332.289062 104.441406 331.003906 105.300781 C 329.714844 106.164062 328.390625 106.957031 327.023438 107.6875 C 325.660156 108.417969 324.261719 109.078125 322.832031 109.667969 C 321.402344 110.261719 319.945312 110.78125 318.464844 111.230469 C 316.984375 111.679688 315.484375 112.058594 313.964844 112.359375 C 312.449219 112.660156 310.917969 112.886719 309.378906 113.039062 C 307.839844 113.191406 306.292969 113.265625 304.746094 113.265625 C 303.199219 113.265625 301.65625 113.191406 300.113281 113.039062 C 298.574219 112.886719 297.046875 112.660156 295.527344 112.359375 C 294.007812 112.058594 292.507812 111.679688 291.027344 111.230469 C 289.546875 110.78125 288.089844 110.261719 286.660156 109.667969 C 285.230469 109.078125 283.835938 108.417969 282.46875 107.6875 C 281.105469 106.957031 279.777344 106.164062 278.492188 105.300781 C 277.203125 104.441406 275.960938 103.523438 274.765625 102.539062 C 273.570312 101.558594 272.425781 100.519531 271.328125 99.425781 C 270.234375 98.332031 269.195312 97.1875 268.214844 95.988281 C 267.234375 94.792969 266.3125 93.550781 265.453125 92.265625 C 264.59375 90.976562 263.796875 89.652344 263.066406 88.285156 C 262.339844 86.921875 261.675781 85.523438 261.085938 84.09375 C 260.492188 82.664062 259.972656 81.207031 259.523438 79.726562 C 259.074219 78.246094 258.699219 76.746094 258.394531 75.226562 C 258.09375 73.710938 257.867188 72.179688 257.714844 70.640625 C 257.5625 69.101562 257.488281 67.554688 257.488281 66.007812 C 257.488281 64.460938 257.5625 62.917969 257.714844 61.375 C 257.867188 59.835938 258.09375 58.308594 258.394531 56.789062 C 258.699219 55.269531 259.074219 53.769531 259.523438 52.289062 C 259.972656 50.808594 260.492188 49.351562 261.085938 47.921875 C 261.675781 46.492188 262.339844 45.097656 263.066406 43.730469 C 263.796875 42.367188 264.59375 41.039062 265.453125 39.753906 C 266.3125 38.464844 267.234375 37.222656 268.214844 36.027344 C 269.195312 34.832031 270.234375 33.6875 271.328125 32.589844 C 272.425781 31.496094 273.570312 30.460938 274.765625 29.476562 C 275.960938 28.496094 277.203125 27.574219 278.492188 26.714844 C 279.777344 25.855469 281.105469 25.058594 282.46875 24.332031 C 283.835938 23.601562 285.230469 22.941406 286.660156 22.347656 C 288.089844 21.753906 289.546875 21.234375 291.027344 20.785156 C 292.507812 20.335938 294.007812 19.960938 295.527344 19.65625 C 297.046875 19.355469 298.574219 19.128906 300.113281 18.976562 C 301.65625 18.824219 303.199219 18.75 304.746094 18.75 C 306.292969 18.75 307.839844 18.824219 309.378906 18.976562 C 310.917969 19.128906 312.449219 19.355469 313.964844 19.65625 C 315.484375 19.960938 316.984375 20.335938 318.464844 20.785156 C 319.945312 21.234375 321.402344 21.753906 322.832031 22.347656 C 324.261719 22.941406 325.660156 23.601562 327.023438 24.332031 C 328.390625 25.058594 329.714844 25.855469 331.003906 26.714844 C 332.289062 27.574219 333.53125 28.496094 334.726562 29.476562 C 335.921875 30.460938 337.070312 31.496094 338.164062 32.589844 C 339.257812 33.6875 340.296875 34.832031 341.277344 36.027344 C 342.261719 37.222656 343.179688 38.464844 344.039062 39.753906 C 344.902344 41.039062 345.695312 42.367188 346.425781 43.730469 C 347.15625 45.097656 347.816406 46.492188 348.40625 47.921875 C 349 49.351562 349.519531 50.808594 349.96875 52.289062 C 350.417969 53.769531 350.796875 55.269531 351.097656 56.789062 C 351.398438 58.308594 351.625 59.835938 351.777344 61.375 C 351.929688 62.917969 352.003906 64.460938 352.003906 66.007812 Z M 352.003906 66.007812 " fill-opacity="1" fill-rule="nonzero"/></g><g fill="#000000" fill-opacity="1"><g transform="translate(10.277705, 374.308834)"><g><path d="M 0.484375 0.015625 C 0.367188 0.015625 0.273438 -0.0078125 0.203125 -0.0625 C 0.140625 -0.125 0.109375 -0.210938 0.109375 -0.328125 C 0.109375 -0.390625 0.125 -0.441406 0.15625 -0.484375 C 0.1875 -0.535156 0.226562 -0.578125 0.28125 -0.609375 C 0.34375 -0.640625 0.421875 -0.664062 0.515625 -0.6875 C 0.609375 -0.695312 0.675781 -0.707031 0.71875 -0.71875 C 0.757812 -0.738281 0.785156 -0.757812 0.796875 -0.78125 C 0.816406 -0.8125 0.828125 -0.84375 0.828125 -0.875 C 0.828125 -0.925781 0.804688 -0.960938 0.765625 -0.984375 C 0.734375 -1.015625 0.675781 -1.03125 0.59375 -1.03125 C 0.519531 -1.03125 0.457031 -1.015625 0.40625 -0.984375 C 0.351562 -0.960938 0.300781 -0.921875 0.25 -0.859375 L 0.234375 -0.859375 L 0.15625 -0.984375 C 0.195312 -1.046875 0.253906 -1.09375 0.328125 -1.125 C 0.410156 -1.164062 0.5 -1.1875 0.59375 -1.1875 C 0.726562 -1.1875 0.828125 -1.15625 0.890625 -1.09375 C 0.960938 -1.03125 1 -0.945312 1 -0.84375 L 1 -0.234375 C 1 -0.160156 1.023438 -0.125 1.078125 -0.125 C 1.097656 -0.125 1.117188 -0.128906 1.140625 -0.140625 L 1.171875 -0.015625 C 1.160156 -0.00390625 1.144531 0 1.125 0 C 1.101562 0.0078125 1.078125 0.015625 1.046875 0.015625 C 0.984375 0.015625 0.9375 0 0.90625 -0.03125 C 0.875 -0.0625 0.851562 -0.101562 0.84375 -0.15625 L 0.828125 -0.15625 C 0.796875 -0.09375 0.75 -0.046875 0.6875 -0.015625 C 0.632812 0.00390625 0.566406 0.015625 0.484375 0.015625 Z M 0.515625 -0.109375 C 0.578125 -0.109375 0.628906 -0.125 0.671875 -0.15625 C 0.722656 -0.1875 0.757812 -0.226562 0.78125 -0.28125 C 0.8125 -0.332031 0.828125 -0.394531 0.828125 -0.46875 L 0.828125 -0.625 L 0.8125 -0.625 C 0.78125 -0.601562 0.742188 -0.585938 0.703125 -0.578125 C 0.671875 -0.566406 0.625 -0.554688 0.5625 -0.546875 C 0.488281 -0.535156 0.429688 -0.519531 0.390625 -0.5 C 0.359375 -0.476562 0.332031 -0.453125 0.3125 -0.421875 C 0.300781 -0.398438 0.296875 -0.367188 0.296875 -0.328125 C 0.296875 -0.253906 0.3125 -0.195312 0.34375 -0.15625 C 0.382812 -0.125 0.441406 -0.109375 0.515625 -0.109375 Z M 0.515625 -0.109375 "/></g></g></g></svg>